<?xml version="1.0" standalone="no"?>
<!DOCTYPE svg PUBLIC "-//W3C//DTD SVG 20010904//EN"
 "http://www.w3.org/TR/2001/REC-SVG-20010904/DTD/svg10.dtd">
<svg version="1.0" xmlns="http://www.w3.org/2000/svg"
 width="192.000000pt" height="192.000000pt" viewBox="0 0 192.000000 192.000000"
 preserveAspectRatio="xMidYMid meet">

<g transform="translate(0.000000,192.000000) scale(0.100000,-0.100000)"
fill="#000000" stroke="none">
<path d="M0 960 l0 -960 960 0 960 0 0 960 0 960 -960 0 -960 0 0 -960z m1470
507 c0 -8 -21 -28 -46 -46 -92 -66 -189 -207 -232 -336 -31 -92 -58 -149 -76
-164 -10 -8 -54 -25 -99 -37 l-82 -23 53 0 c44 -1 52 -4 52 -20 0 -63 -230
-170 -405 -188 -56 -6 -63 -13 -111 -121 l-23 -52 112 6 c128 7 150 15 326
124 l104 65 143 3 c140 3 144 3 144 -17 0 -20 -5 -21 -119 -21 -143 0 -162 -6
-306 -97 -60 -38 -126 -75 -145 -82 -19 -7 -97 -15 -172 -18 -165 -7 -160 -15
-89 134 l49 101 -24 48 c-35 69 -28 171 12 167 17 -2 19 4 15 43 -3 39 2 53
34 99 54 79 201 216 268 250 53 27 59 29 70 14 11 -15 15 -12 36 23 27 48 96
83 241 121 117 32 130 34 208 36 46 1 62 -3 62 -12z"/>
<path d="M977 1141 c-147 -111 -268 -237 -364 -377 -46 -68 -55 -87 -43 -94
11 -7 25 8 61 61 102 153 237 292 392 403 37 26 67 52 67 57 0 22 -41 4 -113
-50z"/>
</g>
</svg>
