<?xml version="1.0" standalone="no"?>
<!DOCTYPE svg PUBLIC "-//W3C//DTD SVG 20010904//EN"
 "http://www.w3.org/TR/2001/REC-SVG-20010904/DTD/svg10.dtd">
<svg version="1.0" xmlns="http://www.w3.org/2000/svg"
 width="512.000000pt" height="512.000000pt" viewBox="0 0 512.000000 512.000000"
 preserveAspectRatio="xMidYMid meet">

<g transform="translate(0.000000,512.000000) scale(0.100000,-0.100000)"
fill="#000000" stroke="none">
<path d="M0 2560 l0 -2560 2560 0 2560 0 0 2560 0 2560 -2560 0 -2560 0 0
-2560z m3904 1374 c32 -32 16 -58 -76 -125 -40 -29 -122 -100 -182 -158 -239
-234 -405 -513 -502 -847 -35 -120 -114 -282 -160 -328 -52 -52 -93 -68 -269
-110 -227 -55 -238 -58 -223 -67 7 -5 67 -9 132 -9 128 0 156 -10 156 -54 -1
-55 -186 -199 -379 -295 -197 -99 -656 -214 -791 -198 -45 5 -46 5 -72 -36
-54 -86 -198 -393 -198 -421 0 -8 76 -6 415 13 227 12 268 27 520 187 110 69
230 145 266 169 99 65 202 114 288 137 66 18 113 22 359 26 156 2 299 1 318
-3 48 -9 64 -48 33 -82 l-22 -23 -303 0 -303 0 -84 -28 c-83 -28 -149 -63
-279 -145 -308 -194 -429 -268 -463 -282 -115 -48 -206 -60 -573 -75 -236 -10
-266 -10 -288 5 -31 20 -30 28 7 122 33 85 209 446 232 477 13 18 15 18 57 -5
33 -19 44 -21 47 -11 3 8 41 68 85 135 298 452 660 826 1093 1127 145 101 165
118 165 142 0 22 -44 52 -62 42 -380 -226 -835 -648 -1121 -1036 -74 -101
-232 -339 -240 -363 -12 -33 -101 113 -128 210 -27 96 -12 306 24 353 15 19
51 14 82 -10 l28 -22 -7 30 c-4 16 -9 72 -13 124 -5 88 -3 99 20 151 29 63
134 204 242 324 39 44 80 91 91 104 36 44 249 223 329 276 44 29 121 74 172
100 118 59 136 54 145 -49 3 -26 9 -19 53 60 64 115 114 168 196 209 66 34 99
47 279 111 92 32 120 40 280 82 253 66 589 102 624 66z"/>
</g>
</svg>
